<svg width="21" height="22" viewBox="0 0 21 22" fill="none" xmlns="http://www.w3.org/2000/svg">
<path fill-rule="evenodd" clip-rule="evenodd" d="M7.02307 9.00007H3.242C2.6872 8.99551 2.15329 9.21152 1.75774 9.60056C1.36218 9.9896 1.13739 10.5198 1.13281 11.0746V18.926C1.14308 20.0809 2.0872 21.009 3.242 20.9992H7.02307C7.57783 21.0039 8.11179 20.7879 8.50737 20.3989C8.90294 20.0098 9.12772 19.4796 9.13226 18.9247V11.0746C9.12772 10.5198 8.90294 9.9896 8.50737 9.60056C8.11179 9.21152 7.57783 8.99551 7.02307 9.00007Z" stroke="#2A9FBC" stroke-width="1.99986" stroke-linecap="round" stroke-linejoin="round"/>
<path fill-rule="evenodd" clip-rule="evenodd" d="M7.02307 1.0008H3.242C2.11042 0.96942 1.16693 1.85984 1.13281 2.99133V4.34324C1.16693 5.47475 2.11042 6.36517 3.242 6.33377H7.02307C8.15459 6.36517 9.09813 5.47475 9.13226 4.34324V2.99133C9.09813 1.85984 8.15459 0.96942 7.02307 1.0008Z" fill="#FBB716" stroke="#FBB716" stroke-width="1.99986" stroke-linecap="round" stroke-linejoin="round"/>
<path fill-rule="evenodd" clip-rule="evenodd" d="M13.908 13.0003H17.6878C18.2428 13.0052 18.777 12.7894 19.1728 12.4003C19.5687 12.0111 19.7937 11.4808 19.7983 10.9257V3.07557C19.7937 2.52078 19.569 1.99053 19.1734 1.60147C18.7778 1.21242 18.2438 0.996436 17.6891 1.00105H13.908C13.3533 0.996436 12.8193 1.21242 12.4237 1.60147C12.0281 1.99053 11.8034 2.52078 11.7988 3.07557V10.9257C11.8034 11.4805 12.0281 12.0107 12.4237 12.3998C12.8193 12.7888 13.3533 13.0048 13.908 13.0003Z" stroke="#2A9FBC" stroke-width="1.99986" stroke-linecap="round" stroke-linejoin="round"/>
<path fill-rule="evenodd" clip-rule="evenodd" d="M13.908 20.9993H17.6878C18.8198 21.0314 19.7641 20.1408 19.7983 19.0088V17.6569C19.7641 16.5253 18.8206 15.635 17.6891 15.6663H13.908C12.7765 15.635 11.833 16.5253 11.7988 17.6569V19.0074C11.8322 20.1395 12.776 21.0306 13.908 20.9993Z" fill="#FBB716" stroke="#FBB716" stroke-width="1.99986" stroke-linecap="round" stroke-linejoin="round"/>
</svg>
