<svg width="21" height="22" viewBox="0 0 21 22" fill="none" xmlns="http://www.w3.org/2000/svg">
<path fill-rule="evenodd" clip-rule="evenodd" d="M7.02405 9.00007H3.24298C2.68817 8.99551 2.15426 9.21152 1.75872 9.60056C1.36316 9.9896 1.13836 10.5198 1.13379 11.0746V18.926C1.14406 20.0809 2.08818 21.009 3.24298 20.9992H7.02405C7.57881 21.0039 8.11277 20.7879 8.50834 20.3989C8.90392 20.0098 9.1287 19.4796 9.13323 18.9247V11.0746C9.1287 10.5198 8.90392 9.9896 8.50834 9.60056C8.11277 9.21152 7.57881 8.99551 7.02405 9.00007Z" stroke="#718096" stroke-width="1.99986" stroke-linecap="round" stroke-linejoin="round"/>
<path fill-rule="evenodd" clip-rule="evenodd" d="M7.02405 1.0008H3.24298C2.1114 0.96942 1.16791 1.85984 1.13379 2.99133V4.34324C1.16791 5.47475 2.1114 6.36517 3.24298 6.33377H7.02405C8.15557 6.36517 9.0991 5.47475 9.13323 4.34324V2.99133C9.0991 1.85984 8.15557 0.96942 7.02405 1.0008Z" fill="#718096" stroke="#718096" stroke-width="1.99986" stroke-linecap="round" stroke-linejoin="round"/>
<path fill-rule="evenodd" clip-rule="evenodd" d="M13.909 13.0003H17.6887C18.2438 13.0052 18.778 12.7894 19.1738 12.4003C19.5697 12.0111 19.7947 11.4808 19.7992 10.9257V3.07557C19.7947 2.52078 19.5699 1.99053 19.1744 1.60147C18.7788 1.21242 18.2448 0.996436 17.6901 1.00105H13.909C13.3542 0.996436 12.8203 1.21242 12.4247 1.60147C12.0291 1.99053 11.8043 2.52078 11.7998 3.07557V10.9257C11.8043 11.4805 12.0291 12.0107 12.4247 12.3998C12.8203 12.7888 13.3542 13.0048 13.909 13.0003Z" stroke="#718096" stroke-width="1.99986" stroke-linecap="round" stroke-linejoin="round"/>
<path fill-rule="evenodd" clip-rule="evenodd" d="M13.909 20.9993H17.6887C18.8208 21.0314 19.7651 20.1408 19.7992 19.0088V17.6569C19.7651 16.5253 18.8216 15.635 17.6901 15.6663H13.909C12.7775 15.635 11.8339 16.5253 11.7998 17.6569V19.0074C11.8331 20.1395 12.7769 21.0306 13.909 20.9993Z" fill="#718096" stroke="#718096" stroke-width="1.99986" stroke-linecap="round" stroke-linejoin="round"/>
</svg>
