<?xml version="1.0" encoding="UTF-8" standalone="no" ?>
<!DOCTYPE svg PUBLIC "-//W3C//DTD SVG 1.1//EN" "http://www.w3.org/Graphics/SVG/1.1/DTD/svg11.dtd">
<svg xmlns="http://www.w3.org/2000/svg" xmlns:xlink="http://www.w3.org/1999/xlink" version="1.1" width="1080" height="1080" viewBox="0 0 1080 1080" xml:space="preserve">
<desc>Created with Fabric.js 5.2.4</desc>
<defs>
</defs>
<g transform="matrix(1 0 0 1 540 540)" id="c90b9fe6-b3fd-4c55-b207-e66db78e9e38"  >
<rect style="stroke: none; stroke-width: 1; stroke-dasharray: none; stroke-linecap: butt; stroke-dashoffset: 0; stroke-linejoin: miter; stroke-miterlimit: 4; fill: rgb(255,255,255); fill-rule: nonzero; opacity: 1; visibility: hidden;" vector-effect="non-scaling-stroke"  x="-540" y="-540" rx="0" ry="0" width="1080" height="1080" />
</g>
<g transform="matrix(1 0 0 1 540 540)" id="b9968b66-8dbc-4ac0-a6f7-9b8d42120288"  >
</g>
<g transform="matrix(38.57 0 0 38.57 540 540)"  >
<g style=""   >
		<g transform="matrix(1 0 0 1 -0.29 0.29)"  >
<path style="stroke: none; stroke-width: 1; stroke-dasharray: none; stroke-linecap: butt; stroke-dashoffset: 0; stroke-linejoin: miter; stroke-miterlimit: 4; fill: rgb(42,65,87); fill-opacity: 0.24; fill-rule: nonzero; opacity: 1;" vector-effect="non-scaling-stroke"  transform=" translate(-13.71, -14.79)" d="M 8.97408 14.3801 L 10.6197 14.9286 C 11.7059 15.2907 12.249 15.4718 12.6386 15.8612 C 13.028 16.2508 13.2091 16.7938 13.5712 17.8801 L 14.1197 19.5257 C 15.0348 22.2711 15.4924 23.6438 16.3333 23.6438 C 17.1742 23.6438 17.6318 22.2711 18.5469 19.5257 L 21.8576 9.59368 C 22.5015 7.66192 22.8235 6.69605 22.3136 6.18619 C 21.8038 5.67635 20.8379 5.9983 18.9061 6.64222 L 8.97408 9.95289 C 6.22867 10.868 4.85596 11.3256 4.85596 12.1665 C 4.85596 13.0074 6.22867 13.465 8.97408 14.3801 Z" stroke-linecap="round" />
</g>
		<g transform="matrix(1 0 0 1 -0.29 0.29)"  >
<path style="stroke: none; stroke-width: 1; stroke-dasharray: none; stroke-linecap: butt; stroke-dashoffset: 0; stroke-linejoin: miter; stroke-miterlimit: 4; fill: rgb(23,68,80); fill-rule: nonzero; opacity: 1;" vector-effect="non-scaling-stroke"  transform=" translate(-13.71, -14.79)" d="M 8.97408 14.3801 L 10.6197 14.9286 C 11.7059 15.2907 12.249 15.4718 12.6386 15.8612 C 13.028 16.2508 13.2091 16.7938 13.5712 17.8801 L 14.1197 19.5257 C 15.0348 22.2711 15.4924 23.6438 16.3333 23.6438 C 17.1742 23.6438 17.6318 22.2711 18.5469 19.5257 L 21.8576 9.59368 C 22.5015 7.66192 22.8235 6.69605 22.3136 6.18619 C 21.8038 5.67635 20.8379 5.9983 18.9061 6.64222 L 8.97408 9.95289 C 6.22867 10.868 4.85596 11.3256 4.85596 12.1665 C 4.85596 13.0074 6.22867 13.465 8.97408 14.3801 Z" stroke-linecap="round" />
</g>
		<g transform="matrix(1 0 0 1 -4.64 4.64)"  >
<path style="stroke: none; stroke-width: 1; stroke-dasharray: none; stroke-linecap: butt; stroke-dashoffset: 0; stroke-linejoin: miter; stroke-miterlimit: 4; fill: rgb(68,200,245); fill-rule: nonzero; opacity: 1;" vector-effect="non-scaling-stroke"  transform=" translate(-9.36, -19.14)" d="M 11.1135 16.6487 L 8.7082 15.847 C 8.36664 15.7331 7.99166 15.7833 7.69211 15.983 L 6.42237 16.8296 C 5.74819 17.279 5.92766 18.3151 6.71372 18.5116 L 8.99399 19.0816 C 9.20299 19.1339 9.36618 19.2971 9.41843 19.506 L 9.9885 21.7864 C 10.185 22.5724 11.2211 22.7519 11.6705 22.0777 L 12.517 20.8079 C 12.7168 20.5084 12.7669 20.1335 12.6531 19.7919 L 11.8513 17.3865 C 11.7352 17.0382 11.4618 16.7648 11.1135 16.6487 Z" stroke-linecap="round" />
</g>
</g>
</g>
</svg>