<svg xmlns="http://www.w3.org/2000/svg" xmlns:xlink="http://www.w3.org/1999/xlink" version="1.1" width="844" height="848" xml:space="preserve" style=""><rect id="backgroundrect" width="100%" height="100%" x="0" y="0" fill="none" stroke="none" style="" class=""/>
<desc>Created with Fabric.js 5.2.4</desc>
<defs>
</defs>




<g class="currentLayer" style=""><title>Layer 1</title><g id="c90b9fe6-b3fd-4c55-b207-e66db78e9e38" class="">
<rect style="stroke: none; stroke-width: 1; stroke-dasharray: none; stroke-linecap: butt; stroke-dashoffset: 0; stroke-linejoin: miter; stroke-miterlimit: 4; fill: rgb(255,255,255); fill-rule: nonzero; opacity: 1; visibility: hidden;" vector-effect="non-scaling-stroke" x="-540" y="-540" rx="0" ry="0" width="1080" height="1080" transform="matrix(0.7759259103282181,0,0,0.7888888894765123,418.99998832022476,426.00000032062815) " stroke-width="0" id="svg_2"/>
</g><g id="b9968b66-8dbc-4ac0-a6f7-9b8d42120288" class="">
</g><g id="svg_3" class="">
<g style="" stroke-width="0" id="svg_4">
		<g stroke-width="0" id="svg_5">
<path style="stroke: none; stroke-width: 1; stroke-dasharray: none; stroke-linecap: butt; stroke-dashoffset: 0; stroke-linejoin: miter; stroke-miterlimit: 4; fill: rgb(42,65,87); fill-opacity: 0.24; fill-rule: nonzero; opacity: 1;" vector-effect="non-scaling-stroke" d="M200.35368142463994,405.41985577536013 L276.9408362246399,430.94704577536004 C327.4925842246399,447.79917977536 352.76845822463986,456.22757377536004 370.90044222463985,474.3502497753601 C389.0231182246399,492.4822337753602 397.4515122246398,517.7534537753602 414.3036462246398,568.30985577536 L439.83083622463994,644.8960797753601 C482.41959022463993,772.6669957753602 503.7162942246399,836.5524537753599 542.8517802246399,836.5524537753599 C581.9872662246398,836.5524537753599 603.2839702246398,772.6669957753602 645.8727242246399,644.8960797753601 L799.9527022246399,182.65986897536015 C829.91980822464,92.75575857536012 844.9056882246399,47.8041687753601 821.17494222464,24.07528437536007 C797.4488502246398,0.34733077536009205 752.49586422464,15.330883775360121 662.5898922246398,45.298920575360114 L200.35368142463994,199.3775023753601 C72.58230002463989,241.9667217753601 8.696376624639868,263.26342577536013 8.696376624639868,302.39891177536003 C8.696376624639868,341.53439777536016 72.58230002463989,362.83110177536014 200.35368142463994,405.41985577536013 z" stroke-linecap="round" stroke-width="0" id="svg_6"/>
</g>
		<g stroke-width="0" id="svg_7">
<path style="stroke: none; stroke-width: 1; stroke-dasharray: none; stroke-linecap: butt; stroke-dashoffset: 0; stroke-linejoin: miter; stroke-miterlimit: 4; fill: rgb(23,68,80); fill-rule: nonzero; opacity: 1;" vector-effect="non-scaling-stroke" d="M200.35368142463994,405.41985577536013 L276.9408362246399,430.94704577536004 C327.4925842246399,447.79917977536 352.76845822463986,456.22757377536004 370.90044222463985,474.3502497753601 C389.0231182246399,492.4822337753602 397.4515122246398,517.7534537753602 414.3036462246398,568.30985577536 L439.83083622463994,644.8960797753601 C482.41959022463993,772.6669957753602 503.7162942246399,836.5524537753599 542.8517802246399,836.5524537753599 C581.9872662246398,836.5524537753599 603.2839702246398,772.6669957753602 645.8727242246399,644.8960797753601 L799.9527022246399,182.65986897536015 C829.91980822464,92.75575857536012 844.9056882246399,47.8041687753601 821.17494222464,24.07528437536007 C797.4488502246398,0.34733077536009205 752.49586422464,15.330883775360121 662.5898922246398,45.298920575360114 L200.35368142463994,199.3775023753601 C72.58230002463989,241.9667217753601 8.696376624639868,263.26342577536013 8.696376624639868,302.39891177536003 C8.696376624639868,341.53439777536016 72.58230002463989,362.83110177536014 200.35368142463994,405.41985577536013 z" stroke-linecap="round" stroke-width="0" id="svg_8"/>
</g>
		<g stroke-width="0" id="svg_9">
<path style="stroke: none; stroke-width: 1; stroke-dasharray: none; stroke-linecap: butt; stroke-dashoffset: 0; stroke-linejoin: miter; stroke-miterlimit: 4; fill: rgb(68,200,245); fill-rule: nonzero; opacity: 1;" vector-effect="non-scaling-stroke" d="M299.922305978241,511.0005264057618 L187.97964397824097,473.6894084057617 C172.08344157824098,468.38850240576176 154.63187237824093,470.7248104057618 140.69081537824098,480.0188484057618 L81.59711577824095,519.4196124057617 C50.22077857824098,540.3346884057618 58.573312378240985,588.5547824057618 95.15654477824097,597.6998924057618 L201.28031057824103,624.2276924057618 C211.00717057824096,626.6617344057618 218.60203317824096,634.2570624057618 221.033748178241,643.9792684057618 L247.56480597824094,750.1090844057618 C256.709915978241,786.6895244057619 304.930009978241,795.0434544057616 325.845085978241,763.6661864057617 L365.2411959782409,704.5696944057618 C374.53988797824087,690.6309644057618 376.87154197824094,673.1831184057618 371.57528997824096,657.2850544057617 L334.2595179782409,545.3377384057618 C328.85622397824096,529.1278564057617 316.132187978241,516.4038204057617 299.922305978241,511.0005264057618 z" stroke-linecap="round" stroke-width="0" id="svg_10"/>
</g>
</g>
</g></g></svg>