<svg width="19" height="17" viewBox="0 0 19 17" fill="none" xmlns="http://www.w3.org/2000/svg">
<path fill-rule="evenodd" clip-rule="evenodd" d="M6.31351 6.37256H2.27551C1.52674 6.37256 1.5 6.93413 1.5 7.65616V14.1544C1.5 14.8497 1.52674 15.438 2.27551 15.438H6.31351C7.06227 15.438 7.08901 14.8764 7.08901 14.1544V7.65616C7.08901 6.96088 7.06227 6.37256 6.31351 6.37256Z" stroke="#44C8F5" stroke-width="1.25"/>
<path d="M7.03516 14.4757H7.40954C8.42572 14.449 9.09427 16 9.86978 16H15.9134C16.6622 16 16.8226 14.8768 16.7959 14.3955C16.7959 14.3955 17.7318 13.9676 17.304 12.2562C17.3575 12.2294 17.8388 11.7748 17.8388 10.8923C17.8388 10.0099 17.3307 9.58199 17.3307 9.58199C17.3307 9.58199 17.8388 9.02042 17.8388 8.19142C17.8388 7.36243 17.1168 6.90782 16.368 6.90782H14.1484C12.223 6.90782 12.3835 5.8649 12.3835 5.8649C12.3835 5.8649 12.1696 3.16398 11.4743 1.90712C10.6185 0.356106 8.90708 0.864199 9.54888 2.89657C10.0302 4.3941 7.86415 6.64041 7.0619 7.38917" stroke="#44C8F5" stroke-width="1.25"/>
</svg>
