<svg width="25" height="24" viewBox="0 0 25 24" fill="none" xmlns="http://www.w3.org/2000/svg">
<g clip-path="url(#clip0_77_1079)">
<path d="M7.39369 7.31301C7.39369 8.99289 6.2406 10.3548 4.81824 10.3548C3.396 10.3548 2.24316 8.99289 2.24316 7.31301C2.24316 5.63325 3.396 4.27148 4.81824 4.27148C6.2406 4.27148 7.39369 5.63325 7.39369 7.31301Z" fill="#718096"/>
<path d="M7.75341 12.6769C7.93941 12.5635 8.14521 12.4896 8.35833 12.4543C7.92561 11.8437 7.61901 11.1888 7.44189 10.4049C7.39341 10.1185 7.00125 10.0849 6.70965 10.3225C6.16413 10.7672 5.52777 11.0648 4.81785 11.0648C4.09425 11.0648 3.42861 10.7769 2.89497 10.2951C2.72469 10.1413 2.47377 10.118 2.27781 10.2377C1.26465 10.8566 0.49773 11.8389 0.16317 13.0057C0.0732897 13.3183 0.136411 13.6561 0.332491 13.9163C0.528811 14.1762 0.835532 14.3294 1.16121 14.3294H5.80137C6.35685 13.6886 7.01241 13.1292 7.75341 12.6769Z" fill="#718096"/>
<path d="M16.8525 7.31301C16.8525 8.99289 18.0055 10.3548 19.4279 10.3548C20.8503 10.3548 22.0031 8.99289 22.0031 7.31301C22.0031 5.63325 20.8503 4.27148 19.4279 4.27148C18.0055 4.27148 16.8525 5.63325 16.8525 7.31301Z" fill="#718096"/>
<path d="M16.4926 12.6769C16.3066 12.5635 16.1007 12.4896 15.8877 12.4543C16.3204 11.8437 16.627 11.1888 16.8041 10.4049C16.8527 10.1185 17.2449 10.0849 17.5365 10.3225C18.082 10.7672 18.7183 11.0648 19.4282 11.0648C20.1517 11.0648 20.8174 10.7769 21.3512 10.2951C21.5214 10.1413 21.7723 10.118 21.9682 10.2377C22.9815 10.8566 23.7485 11.8389 24.0829 13.0057C24.1726 13.3183 24.1096 13.6561 23.9136 13.9163C23.7172 14.1762 23.4106 14.3294 23.0851 14.3294H18.4447C17.8892 13.6886 17.2337 13.1292 16.4926 12.6769Z" fill="#718096"/>
<path d="M15.981 13.4951L15.7143 13.918C17.1255 14.8077 18.1903 16.1942 18.6594 17.8318L18.6595 17.832C18.7542 18.1622 18.6883 18.5178 18.4811 18.7929C18.2739 19.0676 17.9503 19.2286 17.6064 19.2286H6.50362C6.16041 19.2286 5.83676 19.0673 5.629 18.7926C5.42194 18.5173 5.35595 18.1614 5.45047 17.8322L5.45054 17.832C5.92911 16.1625 7.02741 14.7547 8.48031 13.8676L8.48055 13.8674C8.59291 13.7987 8.73565 13.8122 8.83282 13.8999L8.83297 13.9001C9.73378 14.7131 10.8727 15.2115 12.1231 15.2115C13.3493 15.2115 14.4686 14.7319 15.3609 13.946L15.361 13.9459C15.4587 13.8598 15.603 13.8479 15.7146 13.9182L15.981 13.4951ZM15.981 13.4951C15.6825 13.3071 15.2952 13.3375 15.0305 13.5708M15.981 13.4951C17.4937 14.4487 18.6363 15.9356 19.1401 17.6941C19.2782 18.1755 19.1819 18.6935 18.8805 19.0937L15.0305 13.5708M15.0305 13.5708C14.2185 14.2859 13.2139 14.7115 12.1231 14.7115C11.0108 14.7115 9.98818 14.2692 9.16798 13.5289L15.0305 13.5708Z" stroke="#718096"/>
<path d="M15.5812 8.9456C15.5812 11.3323 13.9583 13.1202 12.1235 13.1202C10.2888 13.1202 8.66602 11.3323 8.66602 8.9456C8.66602 6.55873 10.2887 4.77148 12.1235 4.77148C13.9585 4.77148 15.5812 6.55886 15.5812 8.9456Z" stroke="#718096"/>
</g>
<defs>
<clipPath id="clip0_77_1079">
<rect width="24" height="24" fill="white" transform="translate(0.123047)"/>
</clipPath>
</defs>
</svg>
