<svg width="25" height="24" viewBox="0 0 25 24" fill="none" xmlns="http://www.w3.org/2000/svg">
<g clip-path="url(#clip0_77_1655)">
<path d="M7.39369 7.31301C7.39369 8.99289 6.2406 10.3548 4.81824 10.3548C3.396 10.3548 2.24316 8.99289 2.24316 7.31301C2.24316 5.63325 3.396 4.27148 4.81824 4.27148C6.2406 4.27148 7.39369 5.63325 7.39369 7.31301Z" fill="#FBB716"/>
<path d="M7.7539 12.6769C7.9399 12.5635 8.14569 12.4896 8.35881 12.4543C7.92609 11.8437 7.6195 11.1888 7.44238 10.4049C7.3939 10.1185 7.00174 10.0849 6.71014 10.3225C6.16462 10.7672 5.52826 11.0648 4.81834 11.0648C4.09474 11.0648 3.4291 10.7769 2.89546 10.2951C2.72518 10.1413 2.47426 10.118 2.2783 10.2377C1.26514 10.8566 0.498218 11.8389 0.163658 13.0057C0.073778 13.3183 0.136899 13.6561 0.332979 13.9163C0.529299 14.1762 0.83602 14.3294 1.1617 14.3294H5.80186C6.35734 13.6886 7.0129 13.1292 7.7539 12.6769Z" fill="#FBB716"/>
<path d="M16.8535 7.31301C16.8535 8.99289 18.0065 10.3548 19.4288 10.3548C20.8513 10.3548 22.004 8.99289 22.004 7.31301C22.004 5.63325 20.8513 4.27148 19.4288 4.27148C18.0065 4.27148 16.8535 5.63325 16.8535 7.31301Z" fill="#FBB716"/>
<path d="M16.4936 12.6769C16.3076 12.5635 16.1017 12.4896 15.8887 12.4543C16.3214 11.8437 16.628 11.1888 16.8051 10.4049C16.8537 10.1185 17.2459 10.0849 17.5375 10.3225C18.083 10.7672 18.7192 11.0648 19.4292 11.0648C20.1526 11.0648 20.8184 10.7769 21.3521 10.2951C21.5224 10.1413 21.7732 10.118 21.9692 10.2377C22.9825 10.8566 23.7495 11.8389 24.0838 13.0057C24.1736 13.3183 24.1106 13.6561 23.9146 13.9163C23.7182 14.1762 23.4116 14.3294 23.086 14.3294H18.4456C17.8901 13.6886 17.2347 13.1292 16.4936 12.6769Z" fill="#FBB716"/>
<path d="M15.9815 13.4951L15.7148 13.918C17.126 14.8077 18.1908 16.1942 18.6599 17.8318L18.66 17.832C18.7547 18.1622 18.6888 18.5178 18.4816 18.7929C18.2744 19.0676 17.9508 19.2286 17.6069 19.2286H6.50411C6.1609 19.2286 5.83724 19.0673 5.62948 18.7926C5.42243 18.5173 5.35643 18.1614 5.45096 17.8322L5.45103 17.832C5.9296 16.1625 7.0279 14.7547 8.48079 13.8676L8.48104 13.8674C8.5934 13.7987 8.73614 13.8122 8.83331 13.8999L8.83346 13.9001C9.73427 14.7131 10.8732 15.2115 12.1236 15.2115C13.3498 15.2115 14.4691 14.7319 15.3614 13.946L15.3615 13.9459C15.4592 13.8598 15.6035 13.8479 15.715 13.9182L15.9815 13.4951ZM15.9815 13.4951C15.683 13.3071 15.2957 13.3375 15.0309 13.5708M15.9815 13.4951C17.4942 14.4487 18.6368 15.9356 19.1406 17.6941C19.2787 18.1755 19.1823 18.6935 18.881 19.0937L15.0309 13.5708M15.0309 13.5708C14.219 14.2859 13.2144 14.7115 12.1236 14.7115C11.0113 14.7115 9.98867 14.2692 9.16847 13.5289L15.0309 13.5708Z" stroke="#2A9FBC"/>
<path d="M15.5812 8.9456C15.5812 11.3323 13.9583 13.1202 12.1235 13.1202C10.2888 13.1202 8.66602 11.3323 8.66602 8.9456C8.66602 6.55873 10.2887 4.77148 12.1235 4.77148C13.9585 4.77148 15.5812 6.55886 15.5812 8.9456Z" stroke="#2A9FBC"/>
</g>
<defs>
<clipPath id="clip0_77_1655">
<rect width="24" height="24" fill="white" transform="translate(0.123535)"/>
</clipPath>
</defs>
</svg>
